PathFileType	4	(X/Y/Z)	/Users/itak/Documents/Research/Walk-IL/dataset/trc/00405_00012.trc
DataRate	CameraRate	NumFrames	NumMarkers	Units	OrigDataRate	OrigDataStartFrame	OrigNumFrames
100.000000	100.000000	4	54	mm	100.000000	73	587
Frame#	Time	RPSI			LPSI			L3			STRN			T10			C7			CLAV			RBAK			LBAK			LSHO			LUPA			LAEL			LAOL			LWTS			LWPS			LFRA			LHPS			LHTS			RSHO			RUPA			RAEL			RAOL			RWTS			RWPS			RFRA			RIFD			RHPS			RBHD			LFHD			RFHD			LBHD			LHIP			RHIP			RASI			LASI			LKNE			LTHI			LANK			LTIP			LTOE			LMT1			LMT5			LHEE			RKNE			RTHI			RANK			RTIP			RTOE			RMT1			RMT5			RHEE			LIFD			RHTS			*53			
		X1	Y1	Z1	X2	Y2	Z2	X3	Y3	Z3	X4	Y4	Z4	X5	Y5	Z5	X6	Y6	Z6	X7	Y7	Z7	X8	Y8	Z8	X9	Y9	Z9	X10	Y10	Z10	X11	Y11	Z11	X12	Y12	Z12	X13	Y13	Z13	X14	Y14	Z14	X15	Y15	Z15	X16	Y16	Z16	X17	Y17	Z17	X18	Y18	Z18	X19	Y19	Z19	X20	Y20	Z20	X21	Y21	Z21	X22	Y22	Z22	X23	Y23	Z23	X24	Y24	Z24	X25	Y25	Z25	X26	Y26	Z26	X27	Y27	Z27	X28	Y28	Z28	X29	Y29	Z29	X30	Y30	Z30	X31	Y31	Z31	X32	Y32	Z32	X33	Y33	Z33	X34	Y34	Z34	X35	Y35	Z35	X36	Y36	Z36	X37	Y37	Z37	X38	Y38	Z38	X39	Y39	Z39	X40	Y40	Z40	X41	Y41	Z41	X42	Y42	Z42	X43	Y43	Z43	X44	Y44	Z44	X45	Y45	Z45	X46	Y46	Z46	X47	Y47	Z47	X48	Y48	Z48	X49	Y49	Z49	X50	Y50	Z50	X51	Y51	Z51	X52	Y52	Z52	X53	Y53	Z53	X54	Y54	Z54	

74	0.73	145.5651550292969	972.5429077148438	1140.386962890625	134.2582244873047	971.5912475585938	1270.905029296875	134.4225311279297	1053.140625	1206.751831054688	-116.131950378418	1192.069458007812	1165.447509765625	132.5733032226562	1156.534790039062	1217.420166015625	71.48423767089844	1401.075439453125	1216.853759765625	-72.18283843994141	1313.36669921875	1173.797241210938	141.1195373535156	1259.870239257812	1161.679443359375	61.40662384033203	1364.0693359375	1321.146728515625	-36.01288986206055	1375.8720703125	1348.573486328125	-20.19115257263184	1262.662719726562	1425.3203125	-24.2961540222168	1062.5009765625	1444.18408203125	49.14996719360352	1049.861694335938	1401.29345703125	-98.23770904541016	851.11328125	1365.926635742188	-68.72903442382812	833.4961547851562	1440.821899414062	-40.14643478393555	957.0987548828125	1446.3525390625	-77.84264373779297	749.5640258789062	1424.22607421875	-119.4041290283203	753.005126953125	1375.4033203125	54.95115661621094	1378.739990234375	1049.46435546875	86.91877746582031	1317.044555664062	994.3590698242188	100.7828750610352	1058.456665039062	934.7969360351562	106.8877410888672	1040.8271484375	1029.04248046875	-48.87296676635742	858.653076171875	928.0197143554688	-0.251101940870285	846.4584350585938	872.1824951171875	73.67272186279297	997.2996826171875	909.609619140625	-67.86235046386719	685.5439453125	900.7347412109375	-14.99936294555664	759.2803344726562	861.2872924804688	51.75043106079102	1582.527221679688	1120.703491210938	-133.0365295410156	1582.80224609375	1194.123901367188	-77.36538696289062	1580.329223632812	1084.677001953125	-6.478915691375732	1583.820556640625	1270.821655273438	39.33831024169922	955.5647583007812	1376.585693359375	72.13440704345703	953.1194458007812	1019.385986328125	-62.41591262817383	958.2991333007812	1067.23193359375	-74.99771118164062	945.1873168945312	1330.49462890625	61.61159896850586	462.0132751464844	1358.8974609375	46.5830078125	604.8027954101562	1367.223266601562	225.8666687011719	42.39872741699219	1313.659057617188	148.0062255859375	240.5257568359375	1349.141357421875	5.095109939575195	45.15255355834961	1270.065063476562	82.7318115234375	42.85263824462891	1230.048583984375	101.6883010864258	42.10398101806641	1337.5126953125	260.5350952148438	38.26444244384766	1255.371948242188	-155.3885040283203	508.0844421386719	1023.145690917969	-67.51905822753906	753.986083984375	1009.872741699219	-130.8497467041016	77.01856231689453	1061.486206054688	-172.7830047607422	380.331787109375	1029.3916015625	-312.1995544433594	71.10099029541016	1074.118896484375	-252.8968963623047	70.67445373535156	1122.763427734375	-208.541259765625	63.23517990112305	1032.120849609375	-77.65892028808594	65.72347259521484	1133.868896484375	-97.05886077880859	673.089111328125	1363.771606445312	-76.40936279296875	758.3175048828125	893.4082641601562	nan	nan	nan	
75	0.74	140.6821899414062	971.070068359375	1140.02880859375	128.2021331787109	970.4470825195312	1270.400390625	129.0659790039062	1051.489868164062	1206.30126953125	-121.1678771972656	1190.536010742188	1162.645263671875	127.2613525390625	1155.106689453125	1216.569213867188	65.97537994384766	1399.629028320312	1215.254272460938	-77.13748168945312	1311.753540039062	1171.3115234375	136.0932006835938	1258.438598632812	1160.7236328125	55.17181015014648	1362.680541992188	1319.544555664062	-42.42522048950195	1374.4326171875	1346.157348632812	-26.7540283203125	1261.377197265625	1423.20751953125	-31.07948303222656	1061.276245117188	1442.352661132812	42.55197143554688	1048.495971679688	1399.828247070312	-107.1368179321289	851.3970336914062	1363.133422851562	-78.19241333007812	832.9434814453125	1438.0458984375	-47.88026809692383	956.1022338867188	1444.2861328125	-88.5220947265625	749.2725219726562	1421.051513671875	-129.9257659912109	753.5712890625	1372.153686523438	50.63501358032227	1377.125732421875	1047.717041015625	83.32250213623047	1315.403686523438	993.0398559570312	99.47289276123047	1056.720092773438	934.3412475585938	104.2369918823242	1039.420532226562	1028.625854492188	-46.41532897949219	854.2564697265625	925.120849609375	3.349092960357666	843.2035522460938	870.2827758789062	73.70887756347656	995.3547973632812	908.7504272460938	-61.5796012878418	681.0704345703125	897.7283325195312	-9.427999496459961	755.7991943359375	859.16357421875	46.77178955078125	1581.099975585938	1118.850952148438	-138.8116760253906	1581.02734375	1190.714233398438	-82.09041595458984	1578.53076171875	1081.722778320312	-12.83782005310059	1582.488647460938	1268.461547851562	32.37225341796875	954.4154052734375	1375.264770507812	68.40286254882812	951.4522705078125	1018.420532226562	-66.78331756591797	956.7233276367188	1064.973999023438	-81.49742889404297	943.8006591796875	1328.191772460938	58.36830520629883	461.3641662597656	1358.20458984375	41.90027618408203	603.9810180664062	1366.295654296875	225.8159484863281	42.54471588134766	1313.69775390625	146.5009002685547	240.4863433837891	1348.945678710938	4.99479866027832	45.0269660949707	1270.045532226562	82.63508605957031	42.74478912353516	1229.983642578125	101.6382369995117	42.07892227172852	1337.488647460938	260.5112915039062	38.51028442382812	1255.4482421875	-159.1404724121094	506.3640441894531	1019.714965820312	-70.49932861328125	752.621826171875	1007.561279296875	-150.2467651367188	74.56972503662109	1057.069213867188	-180.6710510253906	379.3812561035156	1025.4482421875	-331.7655639648438	73.84330749511719	1067.5732421875	-273.0796508789062	71.78056335449219	1116.849609375	-227.7481842041016	63.37589263916016	1026.692016601562	-98.05055236816406	61.58310699462891	1129.9755859375	-109.4313812255859	673.7947387695312	1360.82958984375	-71.37755584716797	753.4085693359375	890.0820922851562	nan	nan	nan	
76	0.75	135.6229858398438	969.4818115234375	1139.577758789062	121.9454116821289	969.2362670898438	1269.795776367188	123.533203125	1049.704467773438	1205.746704101562	-126.3289031982422	1188.912353515625	1159.683715820312	121.8328170776367	1153.575317382812	1215.61669921875	60.33366394042969	1398.081176757812	1213.53759765625	-82.21295166015625	1310.058471679688	1168.718505859375	130.9281768798828	1256.900756835938	1159.674682617188	48.7914924621582	1361.17578125	1317.836181640625	-48.96882247924805	1372.890380859375	1343.61181640625	-33.49717712402344	1259.980102539062	1420.963623046875	-38.03317260742188	1059.95458984375	1440.396606445312	35.76902770996094	1047.013061523438	1398.250732421875	-116.313720703125	851.6800537109375	1360.161376953125	-87.98019409179688	832.4017333984375	1435.11474609375	-55.82573699951172	955.055908203125	1442.07470703125	-99.57093811035156	749.00341796875	1417.722045898438	-140.741455078125	754.1605834960938	1368.71630859375	46.22355270385742	1375.4033203125	1045.862182617188	79.63214874267578	1313.630493164062	991.629150390625	98.03096008300781	1054.856323242188	933.9069213867188	101.4199371337891	1037.900268554688	1028.211547851562	-43.85369873046875	849.6917724609375	922.31640625	6.96790075302124	839.8780517578125	868.52734375	73.65540313720703	993.3033447265625	907.9381713867188	-55.0887565612793	676.5433349609375	894.9920043945312	-3.744166374206543	752.267822265625	857.2704467773438	41.73371505737305	1579.572021484375	1116.886596679688	-144.6435546875	1579.193481445312	1187.255493164062	-86.87546539306641	1576.660522460938	1078.689453125	-19.23653793334961	1581.045776367188	1266.001708984375	25.14070320129395	953.2139892578125	1373.8291015625	64.48727416992188	949.6301879882812	1017.365539550781	-71.32975006103516	955.0231323242188	1062.625854492188	-88.17398834228516	942.33447265625	1325.746459960938	55.01473999023438	460.6963806152344	1357.47314453125	37.09489059448242	603.1199340820312	1365.305053710938	225.7668304443359	42.68865966796875	1313.787841796875	144.9586639404297	240.4656372070312	1348.752319335938	4.919701099395752	44.92728424072266	1270.023071289062	82.55644226074219	42.6480598449707	1229.945922851562	101.5867156982422	42.04486846923828	1337.481689453125	260.4889526367188	38.78468704223633	1255.564086914062	-162.9624481201172	504.4740600585938	1016.301940917969	-73.63181304931641	751.1039428710938	1005.219482421875	-169.5338287353516	72.47257995605469	1052.359619140625	-188.5412139892578	378.3992919921875	1021.466918945312	-351.0380554199219	76.99235534667969	1060.986938476562	-292.9519958496094	73.29267883300781	1110.812866210938	-246.8451690673828	63.82672500610352	1021.094299316406	-118.3070983886719	57.85058975219727	1125.691040039062	-122.150634765625	674.5585327148438	1357.764404296875	-66.21993255615234	748.4767456054688	886.9864501953125	nan	nan	nan	
77	0.76	130.3674163818359	967.7973022460938	1139.018676757812	115.4976501464844	967.9696655273438	1269.079467773438	117.8228225708008	1047.810791015625	1205.07080078125	-131.6128845214844	1187.201782226562	1156.564453125	116.2777404785156	1151.95751953125	1214.566040039062	54.55246353149414	1396.445434570312	1211.699829101562	-87.43369293212891	1308.297119140625	1166.0048828125	125.6244659423828	1255.26611328125	1158.535522460938	42.26449203491211	1359.571166992188	1316.020263671875	-55.6458740234375	1371.26513671875	1340.940063476562	-40.44240570068359	1258.486938476562	1418.586181640625	-45.16160583496094	1058.553955078125	1438.314575195312	28.80918884277344	1045.432373046875	1396.563110351562	-125.7330856323242	851.9668579101562	1357.006469726562	-98.08270263671875	831.8919067382812	1432.02734375	-63.99027633666992	953.9828491210938	1439.716918945312	-110.9762344360352	748.7760620117188	1414.228759765625	-151.7985992431641	754.7810668945312	1365.06640625	41.71965789794922	1373.581420898438	1043.898681640625	75.84782409667969	1311.742431640625	990.1289672851562	96.45640563964844	1052.88623046875	933.501953125	98.43727874755859	1036.2861328125	1027.804077148438	-41.22565460205078	845.0361938476562	919.6203002929688	10.59089756011963	836.513916015625	866.920166015625	73.50862884521484	991.1648559570312	907.1805419921875	-48.41667938232422	671.9996948242188	892.54150390625	2.01729679107666	748.7196044921875	855.6165771484375	36.62649917602539	1577.953735351562	1114.81298828125	-150.5266876220703	1577.3212890625	1183.743286132812	-91.72208404541016	1574.737915039062	1075.573852539062	-25.67698097229004	1579.495727539062	1263.448852539062	17.68585014343262	951.966796875	1372.274291992188	60.39339828491211	947.6740112304688	1016.209228515625	-76.05528259277344	953.2074584960938	1060.189453125	-95.02489471435547	940.7952880859375	1323.169311523438	51.55660629272461	460.0104064941406	1356.691284179688	32.18247985839844	602.2225952148438	1364.233520507812	225.7113342285156	42.83754730224609	1313.930297851562	143.3715972900391	240.4633941650391	1348.5556640625	4.869123935699463	44.85226058959961	1270.002685546875	82.50122833251953	42.5739631652832	1229.930297851562	101.5336380004883	42.0010871887207	1337.495727539062	260.4658508300781	39.10050201416016	1255.72705078125	-166.8812866210938	502.4606323242188	1012.915771484375	-77.01873016357422	749.4603881835938	1002.855102539062	-188.5479583740234	70.76151275634766	1047.366088867188	-196.3631439208984	377.4110107421875	1017.449096679688	-369.89892578125	80.53955078125	1054.289672851562	-312.4188537597656	75.20556640625	1104.60546875	-265.6839294433594	64.60807037353516	1015.303466796875	-138.3336181640625	54.53030776977539	1121.070068359375	-135.0858612060547	675.3125610351562	1354.469970703125	-60.96223449707031	743.5484619140625	884.1256713867188	nan	nan	nan	
